<svg width="1395" height="108" viewBox="0 0 1395 108" fill="none" xmlns="http://www.w3.org/2000/svg">
<path d="M1019.5 12.5L1015.5 12H811.5H698.5H627.5H570H528.5H419H388.5H374L372.5 12.5L371.5 13L370.5 13.5L369.5 14L368.5 14.5L367.5 15L366.5 15.5L365.5 16L364.5 17L363.5 18L362.5 19L362 19.5L361.5 20L360.5 21L360 21.5L359 22.5L358.5 23L358 24L357.5 25L356.5 26.5L356 28L354.5 26L353.5 27.5V32.5L352.5 33.5L352 36L352.5 49V54.5L353 56.5L352.5 59L351.5 62L353 60.5L352.5 61.5L352 63L351 64.5L350 66L348.5 68L346 70.5L344.5 71.5L343 72.5L340.5 74L339 74.5L337.5 75L336 75.5L331.5 78.5H1063.5L1060.5 75.5L1058.5 75L1057 74.5L1055.5 74L1053.5 73L1052 72L1050.5 71L1049.5 70L1048.5 69L1047.5 68L1046.5 67L1045.5 66L1044.5 64L1043.5 62L1042.5 59L1041.5 57V54V52V49V47V42V40.5V38.5V37.5V36.5V35L1041 34V32.5L1040.5 31L1040 29L1039.5 27.5L1039 26L1038.5 25L1037 22L1035 19.5L1032 17L1030.5 16L1029.5 15.5L1027.5 14.5L1026 14L1024.5 13.5L1022.5 13L1019.5 12.5Z" fill="black" stroke="black"/>
<path d="M1 39.5C1.5 45 6.5 63.5 28 65C28 65 292.217 64.4641 310.834 64.2271C319.111 64.1218 324.678 60.2772 328.353 55.9926L332.357 47.7651L333.085 44.3078L333.358 39.7973V30.8336V23.3638C333.689 20.6969 334.05 19.3156 334.86 16.89C335.788 14.6363 336.461 13.4325 337.863 11.4122C339.264 9.53079 340.167 8.57707 341.868 6.93035C344.104 5.31392 345.421 4.54535 347.874 3.44446C350.687 2.30891 352.309 1.8347 355.382 1.45252H367.896C367.896 1.45252 970.544 3.50307 1011.59 0.485137C1052.63 -2.5328 1063.14 8.42322 1061.14 36.3404C1059.14 64.2576 1082.66 63.2616 1091.17 63.7296C1099.68 64.1975 1344.47 66.5 1366 64.5C1385.74 62.6659 1393.24 48.6373 1393.97 39.3816L1394 37C1394.04 37.7465 1394.03 38.5445 1393.97 39.3816L1393 107.5C1388.5 93 1383.02 85.6836 1366 85C1366.01 85.2911 1133.22 83.8431 1093.68 84.1169C1089.08 84.1487 1081.88 84.1573 1080.66 84.1169C1079.45 84.0765 1076.33 84.2263 1074.16 84.1169L1067.38 84.116L1065.15 84.1169H1063.14C1063.32 84.1046 1061.8 83.8781 1060.14 83.6189L1058.53 83.1971C1057.89 83.0434 1057.26 82.8549 1056.64 82.6229C1055.19 82.0818 1053.86 81.4011 1052.63 80.5904L1049.63 78.6391L1047.13 76.1491L1045.12 73.6592L1043.12 70.1733C1042.05 67.1598 1041.62 65.396 1041.12 62.2056V44.7761C1039.85 29.1574 1031.7 20.5247 1011.59 20.3749H376.405C371.9 20.3749 363.891 21.8688 355.53 34.1181L354.882 36.3104L353.38 42.7842V61.7076C353.177 62.2178 352.974 65.2056 352.771 65.6915L352.379 67.1854C352.056 68.1469 351.859 68.6976 351.378 69.6753C350.958 71 350.545 71.5301 349.876 72.6632L348.875 74.1572L347.374 76.1491C345.7 77.8456 344.637 78.7665 342.368 80.2778C339.706 82.1074 336.612 83.3086 332.858 84.1177C332.858 84.1177 41.1203 83.5107 28 84C14.8797 84.4893 3.5 96.5 0 107.552L1 39.5Z" fill="#FAFAFA"/>
</svg>

