<svg width="359" height="52" viewBox="0 0 359 52" fill="none" xmlns="http://www.w3.org/2000/svg">
<path d="M52.9803 7L49.4056 9.61905C46.9882 11.9618 46.3592 14.0796 45.8309 18.5238V25.8571L43.7882 33.7143C40.5254 37.5247 39.0091 38.3303 36.6388 38.4286L30 40H328.233L318.53 35.8095L314.445 28.4762V22.7143V15.9048L311.892 9.61905L308.317 7H52.9803Z" fill="#101010"/>
<path d="M0 22.4086C1 27.5 3 31.9856 11.5 32H30.5C34.5 31.5 38 28.5 39 26.5C39.5077 25.4846 40 23.5 40 20.5156C39.8717 19.0875 39.8828 17.292 40 15.4685V11.0144C40.0979 9.25398 40.2815 9.05056 40.5 8.01562C40.8237 7.12114 41.0738 6.73632 41.5 6.01562C42.1461 5.13604 42.4984 4.64559 43.1678 3.9195C44.911 1.75636 47.8666 0.0143529 53 0.0143529C64 0.0130807 301.245 0.0896707 304.5 0.0143529C305.258 -0.00319214 305.973 -0.00631292 306.652 0.0143528L307.5 0.0143528C308.636 0.0753474 309.293 0.19491 310.5 0.514353L310.709 0.600752C311.313 0.786519 311.895 1.02447 312.464 1.3265C312.933 1.55118 313.377 1.81033 313.799 2.10806C314.381 2.47607 314.916 2.92642 315.414 3.46659L316 4.01562C316.603 4.84623 317.5 6.01562 317.5 6.01562L318 7.01562L318.5 8.51562C318.73 9.22744 318.805 9.55944 318.831 10.0156C318.888 10.1793 318.944 10.8468 319 11.0156V22.5C320 29 323.222 30.7831 327.5 31.5144L349.5 31.9892C349.978 31.9454 350.225 31.9342 350.574 31.8745C357.552 30.2153 358.513 24.9482 359 23.0144V51.7477C358.5 45.5 353.5 40 347 40L327.5 40.0143H323C321 39.5143 320.48 39.2672 318.5 38.5143L317 37.5143C317 37.5143 314.664 36.0143 315 36.0143C313.754 34.871 313.031 33.488 312.11 31.7239L312 31.5144C310.793 28.763 311.012 26.8286 311 23.0144C310.972 10.8748 307.621 7.85176 298 8.51435H56.5C53.7412 8.8963 51.0539 10.7988 49.345 13.0156L48.5 15.0156L48 17.0156V26.0156V27.0156L47.5 30.0156L46.5 33.0156C46.5 33.0156 45.872 34.4744 44.5 35.5156C42.9219 36.9904 42.3441 37.6336 41.5 38.0156L39.5 39.0156L37.5 39.5156L35.5 40.0156H35.16C34 40.0156 32.3244 39.9583 30.5 40.0156L14 40C4 40.5 1 45 0 51.5143V22.4086Z" fill="#FAFAFA"/>
</svg>


