<svg version="1.1" id="Layer_1" xmlns="http://www.w3.org/2000/svg" xmlns:xlink="http://www.w3.org/1999/xlink" x="0px" y="0px"
	 width="100%" viewBox="0 0 1787 2088" enable-background="new 0 0 1787 2088" xml:space="preserve">
<path fill="#D9D9D9" opacity="1.000000" stroke="none" 
	d="
M1788.000000,1852.000000 
	C1788.000000,1911.697632 1788.000000,1971.395142 1787.682373,2031.224976 
	C1786.911133,2032.168091 1786.239990,2032.927979 1786.036011,2033.797607 
	C1782.852539,2047.370239 1776.338501,2059.281250 1766.411499,2068.847900 
	C1757.050781,2077.869385 1746.081665,2084.710205 1732.892822,2087.125488 
	C1732.494019,2087.198242 1732.293091,2088.350830 1732.000000,2089.000000 
	C1374.302368,2089.000000 1016.604797,2089.000000 658.776978,2088.683838 
	C658.309509,2088.000977 658.027649,2087.394043 657.627197,2087.301758 
	C642.134705,2083.729004 629.423889,2075.749023 619.098877,2063.662109 
	C608.364868,2051.096191 602.598022,2036.479980 602.145020,2020.196411 
	C601.552246,1998.883789 602.065491,1977.541870 601.954468,1956.213379 
	C601.926270,1950.796143 601.590271,1945.351685 600.954041,1939.972046 
	C599.307190,1926.049561 593.182556,1914.042236 584.053406,1903.647461 
	C569.016602,1886.526489 549.402588,1879.101685 527.125366,1879.079590 
	C374.489349,1878.927979 221.853165,1879.006104 69.217049,1878.958496 
	C65.972198,1878.957397 62.667297,1878.625854 59.492245,1877.961548 
	C30.320185,1871.859131 11.712051,1854.231934 2.943168,1825.907104 
	C2.706959,1825.143921 1.665789,1824.630127 0.999994,1824.000000 
	C1.000000,1234.969116 1.000000,645.938171 1.315264,56.776871 
	C2.080117,56.002289 2.746778,55.419247 2.947948,54.705082 
	C10.408052,28.221254 27.559818,11.265193 53.596752,2.956458 
	C54.512672,2.664177 55.203999,1.668070 56.000000,1.000000 
	C469.030914,1.000000 882.061829,1.000000 1295.226074,1.311471 
	C1296.332031,2.097586 1297.261719,2.711240 1298.283691,3.026032 
	C1313.772461,7.797213 1326.882080,16.039267 1336.674072,29.171688 
	C1345.636841,41.191917 1350.924194,54.604061 1350.952026,69.668266 
	C1351.066895,131.997253 1350.963257,194.326630 1351.044189,256.655731 
	C1351.054932,264.909393 1351.518555,273.171356 1352.028931,281.413574 
	C1353.056641,298.009857 1360.279175,312.017273 1371.469604,323.804504 
	C1386.013062,339.123322 1404.636597,345.875641 1425.413574,345.916412 
	C1521.740112,346.105438 1618.067383,345.999786 1714.394287,346.001068 
	C1715.894043,346.001068 1717.442505,345.776520 1718.886108,346.066132 
	C1735.366089,349.372437 1749.735107,356.335938 1761.509521,368.823944 
	C1774.084961,382.161560 1780.826782,397.989288 1780.841064,415.840179 
	C1781.067627,698.321289 1781.005859,980.802673 1780.940674,1263.283936 
	C1780.939819,1267.173340 1780.290771,1271.110962 1779.529053,1274.943481 
	C1776.278198,1291.301025 1768.234497,1304.917603 1755.644897,1315.846436 
	C1743.780273,1326.145630 1730.066895,1332.784180 1714.334229,1332.862793 
	C1649.006958,1333.189331 1583.676636,1332.915527 1518.348267,1333.123535 
	C1511.423828,1333.145508 1504.384033,1334.360229 1497.607178,1335.927368 
	C1480.934937,1339.782593 1467.719604,1349.170898 1457.655884,1362.894897 
	C1449.441406,1374.097168 1444.062988,1386.546143 1444.051025,1400.633667 
	C1443.958374,1509.293091 1443.958862,1617.952637 1444.118164,1726.611938 
	C1444.126343,1732.200439 1445.210938,1737.986328 1446.881592,1743.340942 
	C1457.153076,1776.264404 1484.691772,1794.761475 1517.599976,1794.910889 
	C1583.594238,1795.210571 1649.590942,1794.979370 1715.586548,1795.043091 
	C1720.333252,1795.047729 1725.147827,1795.271484 1729.813354,1796.075073 
	C1744.653076,1798.630859 1757.288452,1805.928223 1767.675171,1816.433594 
	C1776.989136,1825.854004 1783.261108,1837.404907 1786.082153,1850.591309 
	C1786.206177,1851.171021 1787.337769,1851.535400 1788.000000,1852.000000 
z"/>
<path fill="transparent" opacity="1.000000" stroke="none" 
	d="
M1788.000000,1851.531372 
	C1787.337769,1851.535400 1786.206177,1851.171021 1786.082153,1850.591309 
	C1783.261108,1837.404907 1776.989136,1825.854004 1767.675171,1816.433594 
	C1757.288452,1805.928223 1744.653076,1798.630859 1729.813354,1796.075073 
	C1725.147827,1795.271484 1720.333252,1795.047729 1715.586548,1795.043091 
	C1649.590942,1794.979370 1583.594238,1795.210571 1517.599976,1794.910889 
	C1484.691772,1794.761475 1457.153076,1776.264404 1446.881592,1743.340942 
	C1445.210938,1737.986328 1444.126343,1732.200439 1444.118164,1726.611938 
	C1443.958862,1617.952637 1443.958374,1509.293091 1444.051025,1400.633667 
	C1444.062988,1386.546143 1449.441406,1374.097168 1457.655884,1362.894897 
	C1467.719604,1349.170898 1480.934937,1339.782593 1497.607178,1335.927368 
	C1504.384033,1334.360229 1511.423828,1333.145508 1518.348267,1333.123535 
	C1583.676636,1332.915527 1649.006958,1333.189331 1714.334229,1332.862793 
	C1730.066895,1332.784180 1743.780273,1326.145630 1755.644897,1315.846436 
	C1768.234497,1304.917603 1776.278198,1291.301025 1779.529053,1274.943481 
	C1780.290771,1271.110962 1780.939819,1267.173340 1780.940674,1263.283936 
	C1781.005859,980.802673 1781.067627,698.321289 1780.841064,415.840179 
	C1780.826782,397.989288 1774.084961,382.161560 1761.509521,368.823944 
	C1749.735107,356.335938 1735.366089,349.372437 1718.886108,346.066132 
	C1717.442505,345.776520 1715.894043,346.001068 1714.394287,346.001068 
	C1618.067383,345.999786 1521.740112,346.105438 1425.413574,345.916412 
	C1404.636597,345.875641 1386.013062,339.123322 1371.469604,323.804504 
	C1360.279175,312.017273 1353.056641,298.009857 1352.028931,281.413574 
	C1351.518555,273.171356 1351.054932,264.909393 1351.044189,256.655731 
	C1350.963257,194.326630 1351.066895,131.997253 1350.952026,69.668266 
	C1350.924194,54.604061 1345.636841,41.191917 1336.674072,29.171688 
	C1326.882080,16.039267 1313.772461,7.797213 1298.283691,3.026032 
	C1297.261719,2.711240 1296.332031,2.097586 1295.679688,1.311471 
	C1459.969482,1.000000 1623.938843,1.000000 1788.000000,1.000000 
	C1788.000000,617.687561 1788.000000,1234.375122 1788.000000,1851.531372 
z"/>
<path fill="transparent" opacity="1.000000" stroke="none" 
	d="
M0.999994,1824.468628 
	C1.665789,1824.630127 2.706959,1825.143921 2.943168,1825.907104 
	C11.712051,1854.231934 30.320185,1871.859131 59.492245,1877.961548 
	C62.667297,1878.625854 65.972198,1878.957397 69.217049,1878.958496 
	C221.853165,1879.006104 374.489349,1878.927979 527.125366,1879.079590 
	C549.402588,1879.101685 569.016602,1886.526489 584.053406,1903.647461 
	C593.182556,1914.042236 599.307190,1926.049561 600.954041,1939.972046 
	C601.590271,1945.351685 601.926270,1950.796143 601.954468,1956.213379 
	C602.065491,1977.541870 601.552246,1998.883789 602.145020,2020.196411 
	C602.598022,2036.479980 608.364868,2051.096191 619.098877,2063.662109 
	C629.423889,2075.749023 642.134705,2083.729004 657.627197,2087.301758 
	C658.027649,2087.394043 658.309509,2088.000977 658.323364,2088.683838 
	C439.103943,2089.000000 220.207855,2089.000000 1.000000,2089.000000 
	C1.000000,2000.979370 1.000000,1912.958252 0.999994,1824.468628 
z"/>
<path fill="transparent" opacity="1.000000" stroke="none" 
	d="
M1732.468628,2089.000000 
	C1732.293091,2088.350830 1732.494019,2087.198242 1732.892822,2087.125488 
	C1746.081665,2084.710205 1757.050781,2077.869385 1766.411499,2068.847900 
	C1776.338501,2059.281250 1782.852539,2047.370239 1786.036011,2033.797607 
	C1786.239990,2032.927979 1786.911133,2032.168091 1787.682373,2031.678589 
	C1788.000000,2050.926270 1788.000000,2069.852295 1788.000000,2089.000000 
	C1769.646362,2089.000000 1751.291748,2089.000000 1732.468628,2089.000000 
z"/>
<path fill="transparent" opacity="1.000000" stroke="none" 
	d="
M55.531342,1.000000 
	C55.203999,1.668070 54.512672,2.664177 53.596752,2.956458 
	C27.559818,11.265193 10.408052,28.221254 2.947948,54.705082 
	C2.746778,55.419247 2.080117,56.002289 1.315264,56.323238 
	C1.000000,37.739887 1.000000,19.479771 1.000000,1.000000 
	C19.020300,1.000000 37.041492,1.000000 55.531342,1.000000 
z"/>
</svg>