<svg version="1.1" id="Layer_1" xmlns="http://www.w3.org/2000/svg" xmlns:xlink="http://www.w3.org/1999/xlink" x="0px" y="0px"
	 width="100%" viewBox="0 0 1752 1524" enable-background="new 0 0 1752 1524" xml:space="preserve">
<path fill="#D9D9D9" opacity="1.000000" stroke="none" 
	d="
M0.999989,1290.000000 
	C1.000000,878.969116 1.000000,467.938171 1.315264,56.776871 
	C2.080119,56.002285 2.746777,55.419239 2.947948,54.705067 
	C10.408065,28.221251 27.559820,11.265184 53.596756,2.956460 
	C54.512676,2.664178 55.203999,1.668073 56.000000,1.000001 
	C603.030945,1.000000 1150.061890,1.000000 1697.223145,1.315236 
	C1697.997681,2.080122 1698.580688,2.746865 1699.294800,2.948030 
	C1725.778687,10.408099 1742.734497,27.560028 1751.043213,53.596832 
	C1751.335571,54.512737 1752.331909,55.204002 1753.000000,55.999989 
	C1753.000000,348.030914 1753.000000,640.061829 1752.684814,932.223145 
	C1751.719482,933.947632 1750.989380,935.514282 1750.431763,937.140137 
	C1745.524658,951.446777 1737.778687,963.686646 1725.571655,973.025085 
	C1713.346680,982.377319 1699.942505,988.009460 1684.377563,988.006592 
	C1605.717163,987.992126 1527.056641,987.983459 1448.396240,988.044006 
	C1443.974976,988.047424 1439.468628,988.252686 1435.148315,989.105652 
	C1417.487305,992.592468 1402.312256,1000.299805 1390.684448,1014.659973 
	C1380.040649,1027.804932 1374.199463,1042.729370 1374.130493,1059.347412 
	C1373.827759,1132.340454 1374.000122,1205.335449 1373.999023,1278.329712 
	C1373.999023,1279.829468 1374.221191,1281.375000 1373.941040,1282.822021 
	C1370.210449,1302.092041 1361.890625,1318.728516 1345.778320,1330.678223 
	C1333.940674,1339.457764 1320.890137,1345.017456 1305.837158,1345.010742 
	C1247.341797,1344.984375 1188.846069,1344.900879 1130.351074,1345.045410 
	C1104.430908,1345.109619 1078.509155,1345.525269 1052.593994,1346.066162 
	C1041.539062,1346.296875 1031.353760,1350.075928 1022.139526,1356.036255 
	C999.526001,1370.664062 987.449097,1391.147827 987.966370,1418.532959 
	C988.164612,1429.028320 988.230652,1439.537842 987.910706,1450.027222 
	C987.722351,1456.203857 987.367798,1462.532837 985.867371,1468.485474 
	C978.792725,1496.554199 961.627808,1515.177246 933.402100,1523.075317 
	C932.802185,1523.243164 932.461548,1524.337769 932.000000,1525.000000 
	C831.302429,1525.000000 730.604797,1525.000000 629.776978,1524.683838 
	C629.309692,1524.000854 629.027954,1523.394287 628.627686,1523.302002 
	C613.135498,1519.729248 600.425232,1511.749268 590.099670,1499.663208 
	C579.364075,1487.096924 573.840576,1472.478516 573.095764,1456.195435 
	C572.330627,1439.468750 572.961548,1422.663940 571.812866,1405.973755 
	C570.828491,1391.670532 563.886780,1379.473877 554.367676,1368.914917 
	C539.089111,1351.967163 519.372009,1345.068237 497.121460,1345.052246 
	C354.486176,1344.949829 211.850769,1345.006592 69.215439,1344.958496 
	C65.970650,1344.957397 62.665726,1344.626099 59.490795,1343.961670 
	C30.320295,1337.857788 11.711186,1320.231812 2.943099,1291.906982 
	C2.706951,1291.143921 1.665779,1290.630127 0.999989,1290.000000 
z"/>
<path fill="transparent" opacity="1.000000" stroke="none" 
	d="
M932.468628,1525.000000 
	C932.461548,1524.337769 932.802185,1523.243164 933.402100,1523.075317 
	C961.627808,1515.177246 978.792725,1496.554199 985.867371,1468.485474 
	C987.367798,1462.532837 987.722351,1456.203857 987.910706,1450.027222 
	C988.230652,1439.537842 988.164612,1429.028320 987.966370,1418.532959 
	C987.449097,1391.147827 999.526001,1370.664062 1022.139526,1356.036255 
	C1031.353760,1350.075928 1041.539062,1346.296875 1052.593994,1346.066162 
	C1078.509155,1345.525269 1104.430908,1345.109619 1130.351074,1345.045410 
	C1188.846069,1344.900879 1247.341797,1344.984375 1305.837158,1345.010742 
	C1320.890137,1345.017456 1333.940674,1339.457764 1345.778320,1330.678223 
	C1361.890625,1318.728516 1370.210449,1302.092041 1373.941040,1282.822021 
	C1374.221191,1281.375000 1373.999023,1279.829468 1373.999023,1278.329712 
	C1374.000122,1205.335449 1373.827759,1132.340454 1374.130493,1059.347412 
	C1374.199463,1042.729370 1380.040649,1027.804932 1390.684448,1014.659973 
	C1402.312256,1000.299805 1417.487305,992.592468 1435.148315,989.105652 
	C1439.468628,988.252686 1443.974976,988.047424 1448.396240,988.044006 
	C1527.056641,987.983459 1605.717163,987.992126 1684.377563,988.006592 
	C1699.942505,988.009460 1713.346680,982.377319 1725.571655,973.025085 
	C1737.778687,963.686646 1745.524658,951.446777 1750.431763,937.140137 
	C1750.989380,935.514282 1751.719482,933.947632 1752.684814,932.676758 
	C1753.000000,1130.272217 1753.000000,1327.544556 1753.000000,1525.000000 
	C1479.645752,1525.000000 1206.291504,1525.000000 932.468628,1525.000000 
z"/>
<path fill="transparent" opacity="1.000000" stroke="none" 
	d="
M0.999989,1290.468628 
	C1.665779,1290.630127 2.706951,1291.143921 2.943099,1291.906982 
	C11.711186,1320.231812 30.320295,1337.857788 59.490795,1343.961670 
	C62.665726,1344.626099 65.970650,1344.957397 69.215439,1344.958496 
	C211.850769,1345.006592 354.486176,1344.949829 497.121460,1345.052246 
	C519.372009,1345.068237 539.089111,1351.967163 554.367676,1368.914917 
	C563.886780,1379.473877 570.828491,1391.670532 571.812866,1405.973755 
	C572.961548,1422.663940 572.330627,1439.468750 573.095764,1456.195435 
	C573.840576,1472.478516 579.364075,1487.096924 590.099670,1499.663208 
	C600.425232,1511.749268 613.135498,1519.729248 628.627686,1523.302002 
	C629.027954,1523.394287 629.309692,1524.000854 629.323364,1524.683838 
	C419.772797,1525.000000 210.545624,1525.000000 1.000000,1525.000000 
	C1.000000,1446.979370 1.000000,1368.958374 0.999989,1290.468628 
z"/>
<path fill="transparent" opacity="1.000000" stroke="none" 
	d="
M55.531342,1.000001 
	C55.203999,1.668073 54.512676,2.664178 53.596756,2.956460 
	C27.559820,11.265184 10.408065,28.221251 2.947948,54.705067 
	C2.746777,55.419239 2.080119,56.002285 1.315264,56.323238 
	C1.000000,37.739887 1.000000,19.479771 1.000000,1.000000 
	C19.020300,1.000000 37.041492,1.000000 55.531342,1.000001 
z"/>
<path fill="transparent" opacity="1.000000" stroke="none" 
	d="
M1753.000000,55.531330 
	C1752.331909,55.204002 1751.335571,54.512737 1751.043213,53.596832 
	C1742.734497,27.560028 1725.778687,10.408099 1699.294800,2.948030 
	C1698.580688,2.746865 1697.997681,2.080122 1697.676758,1.315236 
	C1716.260132,1.000000 1734.520264,1.000000 1753.000000,1.000000 
	C1753.000000,19.020300 1753.000000,37.041492 1753.000000,55.531330 
z"/>
</svg>