<svg viewBox="0 0 1393 90">
        <line
    x1="0"
    y1="80"
    x2="200"
    y2="80"
    stroke="#fafafa"
    stroke-width="20"
  />
        <path
    d="M199,80 C255,80 197,10 255,10"
    stroke-width="20"
    stroke="#fafafa"
    fill="transparent"
  />
        <line
    x1="254"
    y1="10"
    x2="1130"
    y2="10"
    stroke="#fafafa"
    stroke-width="20"
  />
        <path
    d="M1129,10 C1192,10 1127,80 1192,80"
    stroke-width="20"
    stroke="#fafafa"
    fill="transparent"
  />
        <line
    x1="1191"
    y1="80"
    x2="1393"
    y2="80"
    stroke="#fafafa"
    stroke-width="20"
  />
<g>
<path
      fill-rule="evenodd"
      clip-rule="evenodd"
      d="M267 0C251.536 0 239 12.536 239 28V47C239 60.2548 228.255 71 215 71H60C48.9543 71 40 79.9543 40 91V91C40 102.046 48.9543 111 60 111H1350C1361.05 111 1370 102.046 1370 91V91C1370 79.9543 1361.05 71 1350 71H1177C1163.75 71 1153 60.2548 1153 47V28C1153 12.536 1140.46 0 1125 0H267Z"
      fill="#1B4638"
    />
<path
      d="M0 99C0 83.536 12.536 71 28 71H1365C1380.46 71 1393 83.536 1393 99V111H0V99Z"
      fill="#1B4638"
    /></g>

      </svg>
