<svg viewBox="0 0 1393 178" fill="none" xmlns="http://www.w3.org/2000/svg">
  <path
    fill-rule="evenodd"
    clip-rule="evenodd"
    d="M267 67C251.536 67 239 79.536 239 95V114C239 127.255 228.255 138 215 138H60C48.9543 138 40 146.954 40 158C40 169.046 48.9543 178 60 178H1350C1361.05 178 1370 169.046 1370 158C1370 146.954 1361.05 138 1350 138H1177C1163.75 138 1153 127.255 1153 114V95C1153 79.536 1140.46 67 1125 67H267Z"
    fill="#000"
  />
  <path
    d="M0 166C0 150.536 12.536 138 28 138H1365C1380.46 138 1393 150.536 1393 166V178H0V166Z"
    fill="#000"
  />
  <path
    fill-rule="evenodd"
    clip-rule="evenodd"
    d="M1 0C0.447715 0 0 0.447714 0 0.999999V92C0 107.464 12.536 120 28 120H187C202.464 120 215 107.464 215 92V77C215 61.536 227.536 49 243 49H1149C1164.46 49 1177 61.536 1177 77V92C1177 107.464 1189.54 120 1205 120H1365C1380.46 120 1393 107.464 1393 92V1C1393 0.447715 1392.55 0 1392 0H1Z"
    fill="#000"
  />
</svg>
