<svg viewBox="0 0 144 8" fill="none" xmlns="http://www.w3.org/2000/svg">
<path fill-rule="evenodd" clip-rule="evenodd" d="M143.944 2.54434C143.356 1.60124 138.307 1.20412 123.134 0.873212C108.975 0.558844 92.4929 -0.351151 63.6955 0.145219C41.6834 0.525769 14.2751 2.04799 14.2751 2.89181C14.2751 3.504 15.3437 3.52055 25.5483 2.97454C34.9783 2.47817 39.8135 2.36235 45.7172 2.22999C22.0488 3.52055 16.9999 4.36435 4.39098 5.17508C-3.5163 5.688 1.10518 7.16058 3.99027 7.01167C4.01698 7.01167 40.8018 5.15854 44.2746 5.25781C44.5952 5.27436 41.0957 5.57218 36.4742 5.91964C23.5715 6.91238 26.0558 8.56693 35.7262 7.80583C68.2636 5.24125 98.8775 4.44704 122.466 5.5556C129.919 5.90306 130.747 5.90306 130.747 5.47287C130.747 4.71177 128.717 4.13271 125.538 4.01689C120.569 3.81834 101.442 3.25577 92.7868 3.09031C92.119 3.07377 92.4395 2.75945 93.0272 2.72636C96.5534 2.51126 124.549 2.67666 135.556 2.9083C143.65 3.07375 144.238 3.05726 143.944 2.54434Z" fill="#84EDA6"/>
</svg>
