<svg
  width="1300"
  height="200"
  viewBox="0 0 1300 200"
  fill="none"
  xmlns="http://www.w3.org/2000/svg"
>
<path
    fill-rule="evenodd"
    clip-rule="evenodd"
    d="M12.5 200C5.87258 200 0.5 194.627 0.5 188V66.0351C0.5 59.4077 5.87259 54.0351 12.5 54.0351H37.1129C43.7404 54.0351 49.1129 48.6625 49.1129 42.0351V12C49.1129 5.37258 54.4855 0 61.1129 0H298.5C305.127 0 310.5 5.37259 310.5 12V122.167C310.5 128.794 305.127 134.167 298.5 134.167H265C258.373 134.167 253 139.539 253 146.167V188C253 194.627 247.627 200 241 200H12.5Z"
    fill="#D9D9D9"
  />
<path
    fill-rule="evenodd"
    clip-rule="evenodd"
    d="M594.5 109.667C594.5 116.294 599.873 121.667 606.5 121.667H628.5C635.127 121.667 640.5 127.039 640.5 133.667V188C640.5 194.627 635.127 200 628.5 200L414 200L283 200C276.373 200 271 194.628 271 188V162.834C271 156.206 276.373 150.833 283 150.833H318.5C325.127 150.833 330.5 145.461 330.5 138.833V12C330.5 5.37258 335.873 0 342.5 0H582.5C589.127 0 594.5 5.37257 594.5 12V109.667Z"
    fill="#D9D9D9"
  />
<path
    fill-rule="evenodd"
    clip-rule="evenodd"
    d="M757.5 4.37139e-06L626.5 0C619.873 -2.21153e-07 614.5 5.37258 614.5 12L614.5 93C614.5 99.6274 619.873 105 626.5 105H648.5C655.127 105 660.5 110.373 660.5 117V188C660.5 194.627 665.873 200 672.5 200H958.5C965.127 200 970.5 194.627 970.5 188V92C970.5 85.3726 965.127 80 958.5 80H931C924.373 80 919 74.6274 919 68V12C919 5.3726 913.627 1.77784e-05 907 1.72093e-05L757.5 4.37139e-06Z"
    fill="#D9D9D9"
  />
<path
    fill-rule="evenodd"
    clip-rule="evenodd"
    d="M989.5 0H951C944.373 0 939 5.37258 939 12V47C939 53.6274 944.373 59 951 59H977.5C984.127 59 989.5 64.3726 989.5 71V188C989.5 194.627 994.873 200 1001.5 200H1240C1246.63 200 1252 194.627 1252 188V132.833C1252 126.206 1257.37 120.833 1264 120.833H1287.5C1294.13 120.833 1299.5 115.461 1299.5 108.833V12C1299.5 5.37259 1294.13 0 1287.5 0H1073H989.5Z"
    fill="#D9D9D9"
  />
</svg>
