<svg viewBox="0 0 34 34" fill="none" xmlns="http://www.w3.org/2000/svg">
<path
    d="M26.3562 32.0925C30.6548 27.0373 33.0671 10.9867 33.1057 4.15818C33.1092 3.17222 32.7621 2.29426 32.1029 1.61838C31.4437 0.94249 30.5076 0.538351 29.5363 0.510479C23.7791 0.34325 6.7598 2.29078 1.3111 6.65269C0.438043 7.34948 0.192606 7.87904 0.0804065 8.2135C-0.0773743 8.6908 -0.00724952 9.0601 0.294287 9.36669C1.54251 10.6453 6.16023 10.391 10.6307 10.1471C15.7182 9.86838 20.5253 9.60708 22.1417 11.262C23.8212 12.9795 23.446 18.1044 23.0849 23.0551C22.7658 27.4101 22.4397 31.9148 23.6248 33.1272C23.9789 33.4896 24.3716 33.4304 24.6311 33.3502C25.2237 33.1725 25.7706 32.7719 26.3527 32.089L26.3562 32.0925Z"
    fill="#000"
  />
</svg>
