<svg viewBox="0 0 488 446" fill="none" xmlns="http://www.w3.org/2000/svg">
<path
    fill-rule="evenodd"
    clip-rule="evenodd"
    d="M416 16C416 7.16344 408.837 0 400 0H376C367.163 0 360 7.16344 360 16V20C360 28.8366 367.163 36 376 36H391C399.837 36 407 43.1634 407 52V89C407 97.8366 399.837 105 391 105H252C243.163 105 236 112.163 236 121V217.424C236 226.26 228.837 233.424 220 233.424H165.719C156.882 233.424 149.719 240.587 149.719 249.424V276.176C149.719 285.013 156.882 292.176 165.719 292.176H226C234.837 292.176 242 299.34 242 308.176V328.163C242 336.999 234.837 344.163 226 344.163H95.0813C86.7521 344.163 80 337.41 80 329.081C80 320.752 73.2479 314 64.9187 314H16C7.16344 314 0 321.163 0 330V334C0 342.837 7.16344 350 16 350H64C72.8366 350 80 357.163 80 366V430C80 438.837 87.1635 446 96 446H226.94C235.777 446 242.94 438.837 242.94 430V364C242.94 355.163 250.103 348 258.94 348H348C356.837 348 364 340.837 364 332V308C364 299.163 356.837 292 348 292H259.723C250.886 292 243.723 284.837 243.723 276V252C243.723 243.163 250.886 236 259.723 236H392C400.837 236 408 228.837 408 220V122C408 113.163 415.163 106 424 106H544C552.837 106 560 98.8366 560 90V52C560 43.1634 552.837 36 544 36H432C423.163 36 416 28.8366 416 20V16Z"
    fill="#000"
  />
</svg>
