<svg viewBox="0 0 398 432" fill="none" xmlns="http://www.w3.org/2000/svg">
<path
    fill-rule="evenodd"
    clip-rule="evenodd"
    d="M70.4 16C70.4 7.16345 63.2365 0 54.4 0H-2.41951e-07C-8.83656 0 -16 7.16344 -16 16V57.1755C-16 66.0121 -8.83654 73.1755 1.26958e-05 73.1755H53.5184C62.3549 73.1755 69.5184 80.339 69.5184 89.1755V178.841C69.5184 187.677 76.6818 194.841 85.5184 194.841H228.963C237.8 194.841 244.963 202.004 244.963 210.841V212.343C244.963 221.179 237.8 228.343 228.963 228.343L153.404 228.343C144.568 228.343 137.404 235.506 137.404 244.343V289.927C137.404 298.763 130.241 305.927 121.404 305.927L48.4898 305.927C39.6532 305.927 32.4898 313.09 32.4898 321.927V366.629C32.4898 375.465 39.6532 382.629 48.4898 382.629L121.404 382.629C130.241 382.629 137.404 389.792 137.404 398.629V416C137.404 424.837 144.568 432 153.404 432H308.31C317.147 432 324.31 424.837 324.31 416V398.629C324.31 389.792 331.474 382.629 340.31 382.629H381.486C390.322 382.629 397.486 375.465 397.486 366.629V356.31C397.486 347.474 390.322 340.31 381.486 340.31H339.429C330.592 340.31 323.429 347.474 323.429 356.31V366.629C323.429 375.465 316.265 382.629 307.429 382.629L154.286 382.629C145.449 382.629 138.286 375.465 138.286 366.629V321.927C138.286 313.09 145.449 305.927 154.286 305.927L229.845 305.927C238.681 305.927 245.845 298.763 245.845 289.927V244.343C245.845 235.506 253.008 228.343 261.845 228.343L292.441 228.343C301.277 228.343 308.441 221.179 308.441 212.343V210.841C308.441 202.004 301.277 194.841 292.441 194.841H261.845C253.008 194.841 245.845 187.677 245.845 178.841V89.1755C245.845 80.339 238.681 73.1755 229.845 73.1755H86.4C77.5634 73.1755 70.4 66.0121 70.4 57.1755V16Z"
    fill="#000"
    fill-opacity="1"
  />
</svg>
