<svg viewBox="0 0 240 263" fill="none" xmlns="http://www.w3.org/2000/svg">
<path d="M263.999 65.9384V12.8633C264.008 11.172 263.615 9.49575 262.842 7.93165C262.07 6.36754 260.935 4.9464 259.5 3.75043C258.066 2.55444 256.362 1.60737 254.486 0.963656C252.61 0.319937 250.599 -0.00753899 248.571 0.000131701H130.435C128.407 -0.00753899 126.396 0.319937 124.521 0.963656C122.645 1.60737 120.941 2.55444 119.507 3.75043C118.072 4.9464 116.936 6.36754 116.163 7.93165C115.392 9.49575 114.999 11.172 115.008 12.8633V61.9404C115.008 63.6346 114.607 65.3119 113.827 66.8762C113.048 68.4408 111.905 69.8614 110.466 71.0563C109.026 72.2516 107.316 73.198 105.437 73.841C103.557 74.4839 101.544 74.8109 99.5117 74.8035H15.4965C11.3865 74.8035 7.44451 76.1648 4.53833 78.5879C1.63215 81.0111 0 84.2978 0 87.7246V135.005C0 138.433 1.63215 141.719 4.53833 144.142C7.44451 146.565 11.3865 147.927 15.4965 147.927H99.5117C101.544 147.919 103.557 148.246 105.437 148.889C107.316 149.532 109.026 150.478 110.466 151.674C111.905 152.869 113.048 154.29 113.827 155.854C114.607 157.418 115.008 159.096 115.008 160.79V197.699C114.99 201.116 113.35 204.387 110.445 206.798C107.541 209.209 103.609 210.563 99.5117 210.562H15.4965C11.3865 210.562 7.44451 211.923 4.53833 214.347C1.63215 216.77 0 220.056 0 223.483V250.079C0 253.506 1.63215 256.792 4.53833 259.216C7.44451 261.639 11.3865 263 15.4965 263H104.307C108.417 263 112.358 261.639 115.264 259.216C118.171 256.792 119.804 253.506 119.804 250.079V227.713C119.795 226.019 120.186 224.34 120.957 222.773C121.728 221.205 122.863 219.781 124.297 218.58C125.73 217.38 127.434 216.427 129.31 215.777C131.186 215.127 133.199 214.792 135.23 214.792H247.042C249.074 214.8 251.088 214.473 252.968 213.83C254.847 213.187 256.556 212.24 257.996 211.045C259.436 209.85 260.578 208.429 261.358 206.865C262.138 205.301 262.539 203.623 262.539 201.929V157.024C262.539 155.329 262.138 153.652 261.358 152.088C260.578 150.523 259.436 149.103 257.996 147.907C256.556 146.712 254.847 145.766 252.968 145.123C251.088 144.48 249.074 144.153 247.042 144.161H135.23C133.199 144.161 131.186 143.826 129.31 143.176C127.434 142.526 125.73 141.573 124.297 140.373C122.863 139.172 121.728 137.747 120.957 136.18C120.186 134.612 119.795 132.934 119.804 131.239V91.8384C119.795 90.1442 120.186 88.4653 120.957 86.8983C121.728 85.3309 122.863 83.906 124.297 82.7053C125.73 81.5049 127.434 80.5522 129.31 79.9022C131.186 79.2521 133.199 78.9173 135.23 78.9177H248.571C250.611 78.9255 252.633 78.5942 254.518 77.943C256.403 77.2922 258.114 76.3348 259.55 75.1261C260.987 73.9179 262.119 72.4832 262.883 70.9056C263.647 69.328 264.026 67.6393 263.999 65.9384Z" fill="#84EDA6"/>
</svg>
