<svg viewBox="0 0 132 99" fill="none" xmlns="http://www.w3.org/2000/svg">
<path
    fill-rule="evenodd"
    clip-rule="evenodd"
    d="M5.32394 0C2.38361 0 0 2.37449 0 5.30357V58.7812C0 61.7103 2.38361 64.0848 5.32394 64.0848H33.7183C37.1487 64.0848 39.9296 66.8551 39.9296 70.2723V79.9955C39.9296 83.4128 37.1487 86.183 33.7183 86.183H5.32394C2.38361 86.183 0 88.5575 0 91.4866V93.6964C0 96.6255 2.38361 99 5.32394 99H41.7042C53.4656 99 63 89.502 63 77.7857V21.2143C63 9.49796 53.4656 0 41.7042 0H5.32394Z"
    fill="#84EDA6"
  />
<path
    fill-rule="evenodd"
    clip-rule="evenodd"
    d="M74.3239 0C71.3836 0 69 2.37449 69 5.30357V58.7812C69 61.7103 71.3836 64.0848 74.3239 64.0848H102.718C106.149 64.0848 108.93 66.8551 108.93 70.2723V79.9955C108.93 83.4128 106.149 86.183 102.718 86.183H74.3239C71.3836 86.183 69 88.5575 69 91.4866V93.6964C69 96.6255 71.3836 99 74.3239 99H110.704C122.466 99 132 89.502 132 77.7857V21.2143C132 9.49796 122.466 0 110.704 0H74.3239Z"
    fill="#84EDA6"
  />
</svg>
