<svg  viewBox="0 0 122 11" fill="none" xmlns="http://www.w3.org/2000/svg">
<g opacity="0.6" clip-path="url(#clip0_1927_6795)">
<mask id="mask0_1927_6795" style="mask-type:luminance" maskUnits="userSpaceOnUse" x="0" y="0" width="122" height="11">
<path d="M122 0H0V10.9357H122V0Z" fill="white"/>
</mask>
<g mask="url(#mask0_1927_6795)">
<path d="M73.9609 3.68335V10.698H80.7206C82.5867 10.698 84.1005 9.12719 84.1005 7.18939V0.174805H77.3407C75.4742 0.174805 73.9609 1.74554 73.9609 3.68335ZM75.0874 3.68335C75.0866 3.37607 75.1446 3.07167 75.2577 2.78776C75.371 2.50386 75.5374 2.24609 75.7472 2.02937C75.8869 1.88426 76.0441 1.75872 76.2151 1.65594V7.53071L75.0873 8.70152L75.0874 3.68335ZM82.314 8.84337C82.1052 9.06126 81.8569 9.23401 81.5834 9.35162C81.3099 9.46922 81.0167 9.52934 80.7206 9.5285H75.8841L77.0095 8.3602H82.6722C82.5735 8.53671 82.453 8.69913 82.314 8.84337ZM82.9739 4.85165H80.3894L82.9739 2.16872V4.85165ZM79.5953 1.34424H82.1749L79.5953 4.02204V1.34424ZM82.9739 6.02108V7.19026H78.1362L79.2627 6.02108H82.9739ZM77.342 1.34424H78.4682V5.19159L77.3415 6.36115L77.342 1.34424Z" fill="white"/>
<path d="M5.23908 4.37427L3.84852 4.08257C3.14615 3.92222 2.66866 3.54316 2.66866 3.01813C2.66866 2.36211 3.35695 1.99754 4.28399 1.99754C5.30939 1.99754 6.05379 2.44959 6.29253 3.23696H8.66634C8.31515 0.903975 6.41907 0 4.42449 0C2.42992 0 0.196605 1.00608 0.196605 3.16397C0.196605 5.05953 1.69961 5.87603 3.35695 6.24059L4.59304 6.50304C5.70272 6.75088 6.48926 7.08633 6.48926 7.77159C6.48926 8.64644 5.56222 8.92352 4.74751 8.92352C3.49745 8.92352 2.6547 8.4131 2.38778 7.30491H0C0.365156 9.57953 2.07885 10.9357 4.69128 10.9357C6.81227 10.9357 8.96131 9.68165 8.96131 7.46539C8.96131 5.24913 6.88234 4.72422 5.23908 4.37427Z" fill="white"/>
<path d="M17.7682 6.34253C17.7682 7.90264 17.4733 8.8941 15.7877 8.8941C14.1163 8.8941 13.7651 8.03387 13.7651 6.48826V0.174805H11.3633V6.22581C11.3633 9.7106 12.7399 10.9355 15.7877 10.9355C18.9622 10.9355 20.1701 9.3899 20.1701 6.13831V0.174805H17.7682V6.34253Z" fill="white"/>
<path d="M27.8358 4.37427L26.4453 4.08258C25.743 3.92222 25.2654 3.54316 25.2654 3.01813C25.2654 2.36211 25.9537 1.99754 26.8807 1.99754C27.9061 1.99754 28.6505 2.44959 28.8893 3.23696H31.263C30.9119 0.903975 29.0157 0 27.0211 0C25.0266 0 22.7934 1.00608 22.7934 3.16398C22.7934 5.05953 24.2962 5.87603 25.9537 6.24059L27.1896 6.50304C28.2994 6.75089 29.0859 7.08633 29.0859 7.77159C29.0859 8.64645 28.1589 8.92352 27.3443 8.92352C26.0941 8.92352 25.2513 8.4131 24.9845 7.30491H22.5967C22.9619 9.57954 24.6755 10.9357 27.288 10.9357C29.4089 10.9357 31.5579 9.68165 31.5579 7.46539C31.5579 5.24913 29.4792 4.72422 27.8358 4.37427Z" fill="white"/>
<path d="M32.6211 2.36194H35.8797V10.7459H38.2956V2.36194H41.5684V0.174805H32.6211V2.36194Z" fill="white"/>
<path d="M45.8495 0.174805L42.0146 10.7459H44.5713L45.1754 8.86498H49.1083L49.7263 10.7459H52.3388L48.4901 0.174805H45.8495ZM45.8356 6.83818L47.1558 2.81386L48.4621 6.83818H45.8356Z" fill="white"/>
<path d="M56.8657 0.174805H54.4639V10.7459H56.8657V0.174805Z" fill="white"/>
<path d="M66.883 7.46521L62.7956 0.174805H59.874V10.7459H62.1916V3.45551L66.279 10.7459H69.2006V0.174805H66.883V7.46521Z" fill="white"/>
<path d="M91.268 0.174805H88.8662V10.7459H96.1553V8.54416H91.268V0.174805Z" fill="white"/>
<path d="M100.98 0.174805H98.5771V10.7459H100.98V0.174805Z" fill="white"/>
<path d="M103.987 10.7459H106.39V6.41551H111.18V4.21376H106.39V2.36194H111.488V0.174805H103.987V10.7459Z" fill="white"/>
<path d="M121.999 2.36194V0.174805H114.189V10.7459H121.999V8.54416H116.591V6.41551H121.705V4.21376H116.591V2.36194H121.999Z" fill="white"/>
</g>
</g>
<defs>
<clipPath id="clip0_1927_6795">
<rect width="122" height="11" fill="white"/>
</clipPath>
</defs>
</svg>
