<svg width="311" height="232" viewBox="0 0 311 232" fill="none" xmlns="http://www.w3.org/2000/svg">
<path fill-rule="evenodd" clip-rule="evenodd" d="M0 16C0 7.16344 7.16344 0 16 0H167C175.837 0 183 7.16344 183 16V32C183 40.8366 190.163 48 199 48H295C303.837 48 311 55.1634 311 64V216C311 224.837 303.837 232 295 232H196C187.163 232 180 224.837 180 216V208C180 199.163 172.837 192 164 192H76C67.1634 192 60 199.163 60 208V216C60 224.837 52.8366 232 44 232H16C7.16345 232 0 224.837 0 216V16Z" fill="#EEEEEE"/>
</svg>
